<?xml version="1.0" standalone="no"?>
<!DOCTYPE svg PUBLIC "-//W3C//DTD SVG 20010904//EN"
 "http://www.w3.org/TR/2001/REC-SVG-20010904/DTD/svg10.dtd">
<svg version="1.0" xmlns="http://www.w3.org/2000/svg"
 width="512.000000pt" height="512.000000pt" viewBox="0 0 512.000000 512.000000"
 preserveAspectRatio="xMidYMid meet">
<metadata>
Created by potrace 1.11, written by Peter Selinger 2001-2013
</metadata>
<g transform="translate(0.000000,512.000000) scale(0.100000,-0.100000)"
fill="#000000" stroke="none">
<path d="M2400 4537 c-3 -3 -36 -7 -75 -11 -184 -17 -437 -91 -630 -185 -527
-256 -912 -729 -1055 -1296 -16 -60 -31 -132 -34 -160 -4 -27 -11 -77 -16
-110 -9 -64 -6 -414 5 -480 17 -111 50 -251 82 -350 182 -566 626 -1029 1188
-1240 102 -38 295 -90 375 -101 25 -3 72 -9 105 -14 97 -12 362 -9 470 6 385
53 749 214 1028 452 137 117 304 313 404 472 129 208 239 500 268 720 4 25 10
72 15 105 12 96 9 361 -6 470 -110 806 -681 1455 -1457 1660 -89 23 -106 27
-191 40 -21 4 -48 9 -60 12 -26 6 -410 15 -416 10z m390 -260 c14 -3 43 -8 65
-12 256 -38 597 -193 793 -361 l42 -36 -566 -566 -566 -566 -563 565 c-528
530 -561 565 -547 582 25 28 138 109 229 165 71 43 256 130 313 147 3 1 38 11
78 24 70 21 167 42 262 56 25 4 47 8 49 10 5 6 383 -2 411 -8z m-972 -2282
l-563 -564 -38 41 c-85 93 -204 295 -267 453 -84 211 -115 385 -115 635 0 199
7 259 49 430 55 222 193 496 331 658 l37 42 565 -565 565 -565 -564 -565z
m2184 1520 c95 -144 201 -377 233 -515 44 -191 54 -285 50 -475 -1 -93 -6
-186 -9 -205 -41 -219 -80 -348 -157 -508 -55 -116 -154 -271 -215 -340 l-39
-43 -564 565 -564 564 564 566 564 565 39 -42 c21 -23 65 -82 98 -132z m-355
-2298 c-100 -91 -310 -213 -472 -275 -206 -79 -405 -112 -645 -107 -190 4
-212 6 -312 29 -36 8 -77 17 -89 20 -175 34 -505 200 -657 331 l-42 37 565
565 565 564 565 -563 564 -563 -42 -38z"/>
</g>
</svg>
